<svg width="20" height="20" viewBox="0 0 20 20" fill="none" xmlns="http://www.w3.org/2000/svg">
<path d="M10 13.3333H6.66667V6.66666H10C11.8409 6.66666 13.3333 8.15904 13.3333 9.99999C13.3333 11.8409 11.8409 13.3333 10 13.3333ZM8.33333 8.33332V11.6667H10C10.9205 11.6667 11.6667 10.9205 11.6667 9.99999C11.6667 9.07949 10.9205 8.33332 10 8.33332H8.33333ZM12.5 3.33332H4.16667V16.6667H15.8333V6.66666H12.5V3.33332ZM2.5 2.49316C2.5 2.0367 2.87291 1.66666 3.33208 1.66666H13.3333L17.4998 5.83332L17.5 17.4937C17.5 17.9574 17.1292 18.3333 16.6722 18.3333H3.32783C2.87063 18.3333 2.5 17.9539 2.5 17.5068V2.49316Z" fill="#0070B0"/>
</svg>
